DataType=double
version=3
OpenSimVersion=4.5.2-2025-04-07-2c9fc5bc9
endheader
time	thorax_tilt	thorax_list	thorax_rotation	thorax_tx	thorax_ty	thorax_tz	neck_flexion	neck_bending	neck_rotation	sternoclavicular_r1	sternoclavicular_r2	sternoclavicular_r3	Acromioclavicular_r1	Acromioclavicular_r2	Acromioclavicular_r3	shoulder_plane	shoulder_ele	shoulder_rotation	elbow_flexion	pro_sup	hand_r_Add	hand_r_Flex	sternoclavicular_left_r1	sternoclavicular_left_r2	sternoclavicular_left_r3	Acromioclavicular_left_r1	Acromioclavicular_left_r2	Acromioclavicular_left_r3	shoulder_left_plane	shoulder_left_ele	shoulder_left_rotation	elbow_left_flexion	pro_sup_left	hand_left_Flex	hand_left_Add
0	-3.167662638612666	-0.4705703796080278	0.677601058381513	0.2868277399227677	-0.1114515162515335	1.013479748493164	0.1216069122834088	-0.1269938421626401	0.004266334955865674	0.01025141691211049	0.3727551705195339	0.004390649094930098	9.785558756757001e-20	9.841578339245653e-20	9.897597921734325e-20	-2.91713115409229	-0.3260363024570408	3.157616099845441	1.195970189947125	1.04236868191567	-0.4394607036718036	0.01148792670197491	-0.2390068889706954	-0.1078635486613306	0.00208212705613707	-2.396462466679129e-19	-2.390860508430251e-19	-2.385258550181385e-19	-0.6444362595069316	0.5555849697025121	1.22327298639841	1.233699072030862	0.7258729162524514	-0.1234362913346915	0.3094560786036719
0.033	-3.168392256618743	-0.471542343492594	0.6854744518896896	0.2862767716059324	-0.1108609656332632	1.013442877377823	0.1269608408009864	-0.1226193839319197	-0.008431549913552026	0.009561588844044133	0.3713394020998763	0.006276472194856372	-1.231547865208941e-19	-1.184515337562192e-19	-2.945899086614117e-20	-2.919597067444305	-0.3137218038362352	3.152578600631219	1.189584350536316	1.043620355857143	-0.4388295181955512	0.008073080042268303	-0.2483918996998501	-0.09791806982511495	0.002949595522779044	-8.695716120755015e-19	-8.808363751733431e-19	-4.302777666646438e-19	-0.655776397154231	0.5349499420141612	1.229229917053654	1.246572736724335	0.7246615921450992	-0.1239162201310874	0.3103900509415563
0.066	-3.165473344753084	-0.4717474819785879	0.6844428303334177	0.2864210787751339	-0.1106875749547627	1.013178350337004	0.123473319718364	-0.1146910448956502	-0.02002046320852611	0.0095227744602275	0.3712087267075105	0.008134189300529619	-3.07646389944998e-19	-4.916790869040748e-20	-4.206208246641809e-19	-2.913803183204576	-0.3103924791331971	3.147982397221855	1.189507374267928	1.047127209666735	-0.4345467235210015	0.002608614148106031	-0.2510725687738099	-0.09238823047126211	0.003704744114048937	-6.222350326585469e-19	-1.062682237250378e-20	-3.681449745740252e-19	-0.661510999959789	0.527332148182056	1.230195970296527	1.254107925676337	0.7214231214847125	-0.1238988481683735	0.3114724348618914
0.099	-3.162981612885843	-0.4726655587749581	0.6839679909881992	0.2865155007994761	-0.1103346470775944	1.012937025266341	0.1176084779792414	-0.1052498638922297	-0.02770651588446014	0.007061299353750972	0.370726753838117	0.009833843725131099	-9.861284030550707e-20	-1.093508964686441e-19	3.683241655874567e-19	-2.908104689904278	-0.3096789737694294	3.145508325529384	1.188912963918923	1.049776818577391	-0.4296177274732725	-0.004018612751006297	-0.2520542197403786	-0.08789592631979438	0.004440558495891367	1.786654158106078e-18	6.812980283346827e-19	1.598944102367335e-18	-0.6644532307893335	0.5235625005810646	1.231037848188691	1.260155404575682	0.7160560825483165	-0.1240063359506392	0.3139325617886725
0.132	-3.161690429524239	-0.4737701692207302	0.685025426192038	0.286467372126489	-0.1100038031744417	1.012723990312837	0.1120625003612651	-0.09644606691821611	-0.03139264357950923	0.003483386233546362	0.3696370930185665	0.01142070971028499	-6.95268559103511e-19	-6.274315045671788e-19	-7.199993000258111e-19	-2.905215454085532	-0.3092682108530792	3.143903889773218	1.187671364805191	1.049015664243102	-0.4276714665038075	-0.01041245102090024	-0.2524146737063407	-0.08446843236791106	0.005181259144728447	-6.433849162975546e-19	-1.074341622213387e-19	-1.533205994321887e-18	-0.6646994105324592	0.5217442686321412	1.231815264491195	1.264538159384526	0.7089565307355308	-0.1245092722169734	0.3171803044171553
0.165	-3.161603193477988	-0.474550863045092	0.6866841128451304	0.2863512339628559	-0.1097972646265215	1.012585441430227	0.1083061762827312	-0.09007294377972259	-0.03317161965471382	0.0002188396085557928	0.3686179130889268	0.01294542168652475	9.918218618810522e-19	7.917719488628268e-19	-8.043702284758087e-19	-2.904922445551312	-0.3086673515878392	3.142923016397054	1.185856810325503	1.043220964888737	-0.4316769688970888	-0.01504468034282798	-0.2526466822196113	-0.08241654468237647	0.005929021101601088	1.098195291853801e-18	-2.497314588518715e-19	5.142954722598144e-19	-0.6631941049091492	0.5207637442941435	1.232110340728682	1.267096702280608	0.7012847438153741	-0.1251028739505703	0.3197645570477839
0.198	-3.162213319584408	-0.4749313084436361	0.6883256035700411	0.2862416603356733	-0.109713567729338	1.012543779892833	0.1065826880626981	-0.08703024667570618	-0.0348205410936676	-0.001850388537777426	0.3680993517405665	0.01442458016295745	1.567135455183852e-18	1.390231155848839e-18	2.595532541773105e-18	-2.905759318499837	-0.3080807772273708	3.142586256264226	1.184012424611936	1.033053816974727	-0.4413836860346903	-0.01792387885905316	-0.2530153434471132	-0.08170657640225079	0.006674357801826522	2.3919748491694e-18	1.094838134530358e-18	1.031418564526623e-18	-0.6610229649859081	0.520103976234615	1.231785605936974	1.268147136940821	0.6943496516334569	-0.1254219233152149	0.320396212805014
0.231	-3.162903560669458	-0.4751131265067959	0.6898600082880681	0.2861717297025997	-0.1097043934654526	1.012582858643426	0.1061056099918688	-0.08690139114212966	-0.03686776352255018	-0.002568296566538847	0.3682702221322513	0.01586979495740131	2.841659442790939e-19	8.358123829580124e-19	1.478452855748732e-18	-2.90624846319204	-0.3077045086407397	3.142798320309247	1.182889981506835	1.021172378262293	-0.453188734622795	-0.02062415521187493	-0.2535828553287176	-0.08174939924980278	0.007416556754190012	5.079608815788099e-19	-2.503918976347318e-19	-1.116375748508671e-18	-0.6587166698620683	0.5196605010857366	1.230895564347315	1.268268550541418	0.688973584203564	-0.1254973184509663	0.3185896215173848
0.264	-3.163192751255068	-0.4754627123815213	0.6912785880424005	0.286167364027595	-0.109690744781879	1.01262021311151	0.1056593599213491	-0.08781129589702368	-0.03883639033617284	-0.002431036317709842	0.36918822158154	0.01731195115158579	-1.666027461965912e-18	-7.836046504937457e-19	-3.469053592047537e-18	-2.905529682818645	-0.3075125481497955	3.143212475669111	1.182863603989443	1.010095759131694	-0.4626753506024348	-0.02468093770603839	-0.2541837690714817	-0.08155653962993328	0.008174181115147613	-2.56595069178764e-19	-2.451657991663391e-18	-2.391124593625698e-18	-0.6564732326647079	0.519439545505609	1.229548056666295	1.268295916224592	0.6850277265686675	-0.1259273839360511	0.3145582146633162
0.297	-3.162794062708201	-0.476239047153474	0.6925584855072214	0.286247456221537	-0.1095838658485881	1.012580593346331	0.1040449039097465	-0.08738729574017827	-0.03978721866201187	-0.002162357794673558	0.3704326689481249	0.01878878869611031	1.404431419015152e-18	6.339356541262494e-19	1.913242071031429e-18	-2.90370769993952	-0.3074567242453488	3.143434194191524	1.183728836110469	1.000756607196664	-0.467612655308546	-0.03024213560118934	-0.2545724557221541	-0.08039910312610818	0.008970821119504186	5.586247322949044e-19	9.694737932427429e-19	2.137169266442625e-18	-0.6548345215968477	0.5194305826754615	1.227944123725773	1.269255643814078	0.6807375673024352	-0.1283865889412717	0.3092238004986323
0.33	-3.161734722765039	-0.4774463946176284	0.6937939819861375	0.2864000639737009	-0.1093671668169741	1.012470210735833	0.1003969588614544	-0.08415155829130806	-0.03892981820538517	-0.002275991213927862	0.3712116682707368	0.02030751296134355	1.331164252764715e-18	1.5396978220764e-18	1.545893674151777e-18	-2.901665795381554	-0.3075532831363862	3.143364121643021	1.184749828653432	0.9929192186411813	-0.4688929418608605	-0.03599838535926703	-0.2544954040888145	-0.07824852346866429	0.009806848423059657	1.120564431046255e-18	7.456685647044272e-19	2.225914943352751e-18	-0.6549143016460405	0.5196359361207539	1.226593472277949	1.271974738856422	0.6727110458106743	-0.1356246294203442	0.3041127393498894
0.363	-3.160373080527683	-0.4789762274239284	0.6952303430046682	0.2865787678058748	-0.1091582448932147	1.012341250569399	0.09482397730133717	-0.07825413142457407	-0.0362735123602084	-0.002938810630765235	0.3711705616703908	0.02182947933821114	-8.914861332311893e-19	9.795684355717654e-19	1.293606967240189e-18	-2.900018201999169	-0.3078310357260509	3.143302813553069	1.185242590615921	0.9864065561260973	-0.468506619987649	-0.04030926022888584	-0.2538672007613012	-0.07552513144530743	0.01065098967658745	-1.384419096518838e-20	-9.29597362112025e-20	-1.219377336569826e-18	-0.6575274526293516	0.5199951753815804	1.226236539597473	1.276392800739879	0.657468982270573	-0.150064967115394	0.3005421394210347
0.396	-3.159213915864589	-0.4805812162774869	0.6970198090039266	0.2867041063033607	-0.1091208848329513	1.012245566277817	0.08861077183291155	-0.07135500134466552	-0.03306624197524211	-0.004070261711438785	0.3707911897109198	0.02329443119938457	-5.395338253746714e-18	-2.502581236049268e-18	-3.465170896193668e-18	-2.898598008343102	-0.3082703420666206	3.143542613258061	1.185263855065917	0.9815032345018254	-0.4673513997013996	-0.04244815276318781	-0.2531527620953047	-0.07272156951606758	0.0114597724366526	4.729892629457669e-19	2.019177363886025e-18	-1.151579793582647e-18	-0.661932527099548	0.5202179012504862	1.227180410199145	1.281201593599199	0.6334056483394011	-0.1720326354560685	0.299096712927135
0.429	-3.158696517718496	-0.4818170373977253	0.698985861307176	0.2866932390396404	-0.1092724300077508	1.012224972087657	0.08312532571264124	-0.0657363034017289	-0.03088473940378562	-0.005467065717096473	0.37063024136666	0.02465895207739566	1.060196396190065e-17	4.02741571449028e-18	6.410683786962958e-18	-2.897379744051643	-0.3087021886204404	3.143897771566036	1.185236659957244	0.9782340223594209	-0.4657479736799071	-0.04278481363805935	-0.2530711932806138	-0.07024332516838461	0.01220333923541682	1.187059986952195e-18	1.649321182028502e-18	-2.64593821853807e-18	-0.6658964647490813	0.5199521297904075	1.228898689551925	1.284565834649816	0.6021300945016872	-0.1988809233284133	0.2997723786891667
0.462	-3.159048953475336	-0.4821832136271653	0.7007344834592732	0.2865081485949038	-0.1094555960223889	1.012319022074276	0.07850759342927804	-0.06323198257831801	-0.03019091688604752	-0.006735110989899394	0.3706611891675626	0.02591747533356708	-7.249387375197151e-18	3.220529264738101e-18	-8.484993706395608e-19	-2.897126076899297	-0.3089531992033959	3.14401114999131	1.18535676732884	0.976079277187714	-0.4644089755795558	-0.04217770390314719	-0.2536484252304137	-0.06846085616542866	0.01287927569977014	2.52171084978987e-19	3.957861881369611e-19	5.830096604901992e-18	-0.6674197620876281	0.5191307292811533	1.230487172063592	1.285234596912136	0.5683924002932503	-0.2258067176310856	0.3022133149490902
0.495	-3.160139881794317	-0.4813699692158679	0.7019731064954668	0.2861999195512703	-0.1095347669900671	1.012540902569596	0.07402139844425185	-0.06448270901164367	-0.03033892221144489	-0.007273291108442234	0.3707039424570509	0.02709903110564309	6.585372641472983e-18	-4.914571313859151e-18	-2.227576947654872e-18	-2.898529149484211	-0.3090315317408701	3.143941288269824	1.185849760590895	0.9746559879834366	-0.4636478952312879	-0.04137657191045387	-0.2540276220336274	-0.06770539553668198	0.01351058550930844	-1.623176485409736e-18	-7.016929703006155e-19	-5.41312454860257e-19	-0.6661283961840269	0.5179745674225111	1.231374489709619	1.2829960748293	0.5377966150816571	-0.2483495803749391	0.3061792361470262
0.528	-3.161365992884176	-0.4796243361429229	0.7026605413149924	0.2859362152043893	-0.1094998712212837	1.012814077246441	0.06968290836392661	-0.0686876216630007	-0.03033627731144124	-0.006675399058942541	0.3709572235469679	0.02825439939963573	-3.919726819939326e-18	3.5867362046629e-18	5.645946399943947e-18	-2.901057623277852	-0.3088741605388863	3.14402778640071	1.187003453809825	0.9739725087665005	-0.4633116448146226	-0.04089063551091363	-0.2534567943440327	-0.06790304461363823	0.01413244232255158	6.434114658305467e-19	1.364718280360868e-18	1.354729669691673e-18	-0.6627892345174317	0.5167859061727696	1.231474791494224	1.27866427422168	0.5138837026247226	-0.2646324364102466	0.311994104541732
